<svg id="Layer_1" data-name="Layer 1" xmlns="http://www.w3.org/2000/svg" viewBox="0 0 720 720"><defs><style>.cls-1{fill:none;}.cls-1,.cls-2{stroke:#686868;stroke-miterlimit:10;stroke-width:15px;}.cls-2{fill:#fff;}</style></defs><title>Collabor8</title><g id="WEpgkL.tif"><path class="cls-1" d="M365.08,442.56c0,15-.18,30,.11,45,.08,4.24-1.52,6.07-5.17,7.73-28.06,12.78-57.76,18.78-88.2,22-33.66,3.59-67.17,2.41-100.65-2.19-29.65-4.07-58.6-11.09-87.18-19.81-2.79-.85-3.42-2.24-3.41-4.83.07-28.35-.58-56.72.22-85,1.2-42.27,20.87-73.86,58-94.13,15.29-8.34,32-11.9,49.44-11.86,26.07.06,52.17-.4,78.21.64,24.28,1,45.36,10.83,63.44,27.11a104,104,0,0,1,32.71,56.39c1.76,8.07,2.1,16.52,2.38,24.82C365.37,419.81,365.08,431.19,365.08,442.56Z"/><path class="cls-1" d="M306.15,209.91a83.32,83.32,0,1,1-166.64.54c-.26-46,37.14-83.49,83.35-83.54A82.86,82.86,0,0,1,306.15,209.91Z"/></g><g id="WEpgkL.tif-2" data-name="WEpgkL.tif"><path class="cls-1" d="M639.49,442.56c0,15-.18,30,.11,45,.08,4.24-1.52,6.07-5.17,7.73-28.06,12.78-57.76,18.78-88.2,22-33.66,3.59-67.17,2.41-100.65-2.19-29.65-4.07-58.6-11.09-87.18-19.81-2.79-.85-3.42-2.24-3.41-4.83.07-28.35-.58-56.72.22-85,1.2-42.27,20.87-73.86,58-94.13,15.29-8.34,32-11.9,49.44-11.86,26.07.06,52.17-.4,78.21.64,24.28,1,45.36,10.83,63.44,27.11A104,104,0,0,1,637,383.63c1.76,8.07,2.1,16.52,2.38,24.82C639.77,419.81,639.49,431.19,639.49,442.56Z"/><path class="cls-1" d="M580.56,209.91a83.32,83.32,0,1,1-166.64.54c-.26-46,37.14-83.49,83.35-83.54A82.86,82.86,0,0,1,580.56,209.91Z"/></g><g id="WEpgkL.tif-3" data-name="WEpgkL.tif"><path class="cls-2" d="M502.08,516.21c0,15-.18,30,.11,45,.08,4.24-1.52,6.07-5.17,7.73-28.06,12.78-57.76,18.78-88.2,22-33.66,3.59-67.17,2.41-100.65-2.19-29.65-4.07-58.6-11.09-87.18-19.81-2.79-.85-3.42-2.24-3.41-4.83.07-28.35-.58-56.72.22-85,1.2-42.27,20.87-73.86,58-94.13,15.29-8.34,32-11.9,49.44-11.86,26.07.06,52.17-.4,78.21.64,24.28,1,45.36,10.83,63.44,27.11a104,104,0,0,1,32.71,56.39c1.76,8.07,2.1,16.52,2.38,24.82C502.37,493.46,502.08,504.84,502.08,516.21Z"/><path class="cls-2" d="M443.15,283.56a83.32,83.32,0,1,1-166.64.54c-.26-46,37.14-83.49,83.35-83.54A82.86,82.86,0,0,1,443.15,283.56Z"/></g></svg>