<svg id="Layer_1" data-name="Layer 1" xmlns="http://www.w3.org/2000/svg" viewBox="0 0 720 720"><defs><style>.cls-1{fill:#686868;}</style></defs><title>Collabor8</title><g id="s94fWG.tif"><path class="cls-1" d="M644.3,377.36l-99.57,49.4c-3.89,28.94-10.78,36.48-38.08,41.38-5.09,18.16-16.55,30.31-36.37,33-3.74.5-3.89,3.56-5.15,6a95.23,95.23,0,0,1-5,8.65c-11.2,17.09-33.23,13.65-48.35,26.3-16.21,13.56-35-.58-50.44-11.55-1.94-1.37-4-2.6-6.93-4.52-5.58,9.47-11.65,18.54-24.39,18.14-11-.35-20.33-4.7-28.56-11.73-2.21-1.89-4.29-3.7-7.57-3-19.41,4.4-30.72-6-38.72-22.1-19.32,2.81-31.87-5.15-37.71-23.17-1.95-6-7.37-7-11.67-9.63C187.38,463.16,182,450.78,186.69,429L90.52,360.13c-18.7-13.38-18.64-13.34-5.77-33.1q39.78-61,79.44-122.17h11.5c15.07,15.6,34.72,24.25,53,34.94a6.47,6.47,0,0,0,6.64.17c34.44-16.75,72.76-18.86,109-28.81,19.56-5.37,38.61-5.09,57.13,4.4,21.64,11.09,43.94,21,65.05,33,10.33,5.87,18.64,6,29.19,1.52,24.12-10.27,48.74-19.37,73.16-28.94,17.43-6.83,17.38-6.8,24.1,11.47q25.6,69.53,51.29,139ZM292.77,426c16.32-1.47,27.62,5.24,35.25,18.43A17.51,17.51,0,0,0,335.3,451c17.13,9.48,23.63,24,20.66,43.23-.63,4-3,9,1.43,12C368.76,514,378.77,524,392.53,528c6.11,1.79,11.6,2,15.3-3.8,4-6.19-1.25-9.47-5-13q-18.26-17.28-36.48-34.6c-4.32-4.1-8.82-8.65-3.62-14.63,5.82-6.69,11-2.45,15.79,2.11,15.28,14.51,30.89,28.69,45.78,43.59,8.18,8.19,14.66,4.44,20.88-1.51,6.49-6.21,5.24-11.78-1.56-17.95-16.67-15.11-32.65-31-48.91-46.54-4.62-4.42-10-9.18-3.85-15.61s11.06-1.63,15.79,2.91q24.88,23.87,49.9,47.59c9.65,9.16,18.83,9.19,26.79,0s5.82-16.21-3.4-23.91c-17.26-14.41-33.52-30-50.19-45.15-4.68-4.24-10.51-8.84-4.76-15.47,6.39-7.37,11.85-1.74,16.87,3,2.1,2,4.22,3.89,6.35,5.82,16.68,15.11,33.3,30.27,50.07,45.28,8,7.18,16.3,5,23.05-1.46,7.4-7,5.29-13.6-2.06-20.53-17.07-16.09-33.53-32.85-49.86-49.7A74.35,74.35,0,0,0,445,357.38c-31.76-13.78-57.13-34.49-69.26-68.54-11.57.3-21.65,2.31-31,9.58C332.67,307.86,319,315,303.41,317c-14.16,1.84-27.36-.85-35.24-13.82-7.51-12.34-2.31-24.41,5.2-34.74,7.24-9.95,16-18.8,25.55-29.84-20.56,4.21-39.09,8.58-56,17.46-8.36,4.38-15,3.73-22.67-.93-15.81-9.65-31.94-18.79-48.51-28.48L95.55,342.38l99.38,71c22.66-17.83,28-17.93,51-1.65C271,399.61,280.87,402.44,292.77,426ZM575.19,236.52c-29.49,11.77-57.47,22.7-85.22,34.19-7.75,3.21-13.94,2.88-21.39-1.35-25.29-14.37-51-27.94-77.75-39.56-19.79-8.6-38.95-5.66-56.34,4.34-18.29,10.52-33,26-46,42.73-3.87,5-9.24,11.25-4.59,18.06s12.82,5.95,19.81,4.46c13.81-3,25.71-10.23,36.52-19,13.12-10.63,28.82-8.12,43.75-9.41,4.35-.38,6.45,3.29,7.47,7.33,8.62,34.05,33.94,51.84,63.93,64.52A66.41,66.41,0,0,1,477.51,358c18.32,18.68,36.91,37.1,55.26,55.5l91.69-46ZM250.59,489.57c3-19.05,11-36.11,23.32-51,4.12-5,1.5-9.16-1-13-3.44-5.19-8.76-3.56-12.84-1.24-15.85,9-26.17,22.42-28.17,40.81C230.23,480,237.14,488.63,250.59,489.57Zm88.26-2.12c.65-13.77-9.87-25.64-18.4-20.26-14,8.84-13.63,24.1-13.61,38.56,0,12.41,9,17.17,18.84,20.42,5.93,2,10.38,0,10.87-7.21C337.25,508.44,338.08,497.95,338.85,487.45Zm-49.33,24.92c-.94-23.86,1.42-45.85,21.81-61.62-6.87-7.93-14.5-11.68-22-3.37-9.94,11-17.71,23.77-20.13,38.85C267,499.83,275,510.63,289.52,512.37Zm-57.72-88.51c-11.95-11.79-18.48-4.17-24.32,4.72-9.37,14.28-7.48,21.35,7.48,29.21C217.86,445.58,224,434.94,231.81,423.87Z"/></g></svg>