<svg id="Layer_1" data-name="Layer 1" xmlns="http://www.w3.org/2000/svg" viewBox="0 0 720 720"><defs><style>.cls-1,.cls-2,.cls-4{fill:#fff;}.cls-1,.cls-4{stroke:#686868;stroke-miterlimit:10;}.cls-1{stroke-width:15px;}.cls-3{fill:#686868;}.cls-4{stroke-width:11px;}</style></defs><title>Collabor8</title><g id="WEpgkL.tif"><path class="cls-1" d="M471.63,520.52c0,15-.18,30,.11,45,.08,4.24-1.52,6.07-5.17,7.73-28.06,12.78-57.76,18.78-88.2,22-33.66,3.59-67.17,2.41-100.65-2.19C248.08,589,219.13,582,190.55,573.3c-2.79-.85-3.42-2.24-3.41-4.83.07-28.35-.58-56.72.22-85,1.2-42.27,20.87-73.86,58-94.13,15.29-8.34,32-11.9,49.44-11.86,26.07.06,52.17-.4,78.21.64,24.28,1,45.36,10.83,63.44,27.11a104,104,0,0,1,32.71,56.39c1.76,8.07,2.1,16.52,2.38,24.82C471.92,497.77,471.63,509.15,471.63,520.52Z"/><path class="cls-1" d="M412.7,287.86a83.32,83.32,0,1,1-166.64.54c-.26-46,37.14-83.49,83.35-83.54A82.86,82.86,0,0,1,412.7,287.86Z"/></g><g id="_88sgPg.tif" data-name="88sgPg.tif"><path class="cls-2" d="M466.93,309.46c-2.78-2.63-5.64-5.31-8.56-8-7.32-6.85-14.89-13.93-22.25-21.37-5.1-5.15-7.81-7.41-12.39-7.41-.44,0-.9,0-1.37.06-4.08.37-8.38.55-13.55.55-4,0-8-.1-11.87-.21-2.31-.06-4.61-.12-6.92-.16-7-.12-15.83-1.26-21.47-9.09-2.52-3.5-5.54-8.85-5.59-14.42-.28-31.32-.24-63.15-.19-93.93l0-12.14c0-10,7.9-19.65,17.59-21.61a56.65,56.65,0,0,1,11.22-1.23q41-.05,82-.06c28.68,0,54.27,0,78.25.09h.37c7.07,0,16.75,0,22.76,8.94,2,2.94,5.34,8.84,5.4,15.25.14,14.25.12,28.72.1,42.71,0,18.85-.06,38.34.31,57.47.16,8.26-2.3,15.24-7.11,20.19s-12.18,7.82-20.89,7.89c-2.72,0-5.44.08-8.17.14-3.42.07-7,.15-10.46.15-5.25,0-9.59-.17-13.66-.55-.43,0-.86-.06-1.26-.06-4.37,0-7,2.39-11.65,7l-.12.12c-7.52,7.4-15.24,14.55-22.7,21.48-3,2.79-6,5.55-8.9,8.28l-4.47,4.19ZM425.12,170.09a19.22,19.22,0,0,0-4.29.53C415,172,411.32,176.12,410,183c-1.71,8.77.22,16.15,5.9,22.57,6.31,7.13,14.3,13,25.79,18.8,1.74-1.1,3.48-2.19,5.23-3.28,6.51-4.05,12.66-7.88,18.19-12.45,7.65-6.32,10.74-14.67,9.18-24.82-1.31-8.53-7.18-13.62-15.68-13.62H458c-3.82.11-6.84,2.05-11.13,7.16l-5.55,6.59-4.81-7.15C433.37,172.22,429.77,170.09,425.12,170.09Z"/><path class="cls-3" d="M473.45,126.91q39.18,0,78.36.09c6.45,0,13.59-.09,17.76,6.08,2.27,3.36,4.25,7.74,4.29,11.68.34,33.41-.25,66.84.41,100.25.27,13.58-7.8,21.34-21.56,21.45-6.18,0-12.39.29-18.58.29-4.37,0-8.73-.12-13.06-.52q-1-.09-1.85-.09c-7.29,0-11.54,4.24-16.34,9-10.47,10.3-21.37,20.17-31.48,29.64-9.68-9.18-20.46-18.94-30.67-29.27-5-5-9.45-9.34-17-9.34-.63,0-1.28,0-2,.09-4.3.39-8.62.52-13,.52-6.22,0-12.46-.26-18.68-.37s-12.43-1-16.31-6.39c-2.21-3.06-4.33-7.07-4.37-10.68-.32-35.33-.22-70.67-.17-106,0-6.9,5.68-13.89,12.38-15.25a50.86,50.86,0,0,1,9.94-1.1q40.92-.05,81.85-.06M441.82,231.14a4,4,0,0,0,2.08-.49c8.56-5.5,17.53-10.56,25.33-17,9.42-7.78,13.38-18.38,11.46-30.82-1.81-11.75-10.39-19.13-22.11-19.13h-.82c-6.85.2-11.45,4.17-15.92,9.47-4.46-6.63-10.18-9.58-16.73-9.58a25.59,25.59,0,0,0-5.75.69c-9,2.08-14.08,8.78-15.77,17.46-2,10.36.21,20,7.42,28.13,8.09,9.13,18.16,15.53,28.94,20.91a4.36,4.36,0,0,0,1.87.37m69.58-46.66c1.35,0,2.87-.43,4-.48H516c4.28,0,5.34,2,5.21,6.21-.29,9.39-.09,18.8-.09,28.45a35.18,35.18,0,0,0,4.15.4c2.75,0,3-1.18,3-5.17.06-13.74.08-27.49-.07-41.23,0-1.38-1.35-2.74-2.07-4.12a32.4,32.4,0,0,0-4.44,2.51c-2.41,1.89-4.42,4.41-7,5.93-2.28,1.33-6.94-.6-6.51,4.23.23,2.66,1.62,3.28,3.25,3.28m-38-70.57c-28.6,0-57.43,0-81.87.06a63.08,63.08,0,0,0-12.5,1.36c-12.77,2.58-22.78,14.87-22.8,28l0,12.12c0,30.81-.09,62.66.19,94,.07,7.27,3.74,13.89,6.82,18.15,8.27,11.48,21.61,11.7,26.64,11.79,2.29,0,4.58.1,6.87.16,3.92.1,8,.21,12,.21,5.37,0,9.87-.18,14.14-.58.27,0,.53,0,.77,0,1.82,0,3.05.72,7.76,5.48,7.45,7.53,15.06,14.65,22.43,21.54,3,2.78,5.78,5.41,8.54,8l8.89,8.43,8.94-8.38c2.9-2.72,5.87-5.47,8.87-8.25,7.5-7,15.25-14.14,22.84-21.61l.12-.12c4.36-4.29,5.49-5.11,7.09-5.11.2,0,.43,0,.66,0,4.26.39,8.79.58,14.25.58,3.58,0,7.15-.08,10.61-.15,2.66-.06,5.41-.12,8.07-.14,10.49-.08,19.31-3.49,25.5-9.85s9.15-14.82,9-24.85c-.38-19.06-.34-38.52-.31-57.33,0-14,0-28.5-.1-42.79-.08-8.12-4.12-15.28-6.51-18.83C572.4,114,559.76,114,552.21,114h-.36c-24-.06-49.66-.09-78.39-.09Zm-32.07,103c-9-4.89-15.48-9.8-20.63-15.62-4.31-4.87-5.71-10.28-4.39-17,1.21-6.19,4.4-6.93,5.93-7.28a12.75,12.75,0,0,1,2.83-.36c1.63,0,3.56.3,6,3.85l9.63,14.29,11.1-13.18c4-4.78,5.42-4.82,6.35-4.84h.45c5.32,0,8.43,2.73,9.26,8.11,1.22,7.94-1,13.92-6.89,18.82-5.19,4.29-11.16,8-17.48,11.94l-2.1,1.31Z"/></g><rect class="cls-2" x="387" y="152" width="106" height="95"/><g id="PpADQ1.tif"><path class="cls-4" d="M458.56,169.11H461a9.49,9.49,0,0,0,1.29.31,17.17,17.17,0,0,1,14.89,13.33c.18.86.38,1.72.58,2.58V188a9.07,9.07,0,0,0-.31.86,59.54,59.54,0,0,1-1.61,6.23,36,36,0,0,1-10.28,14.52c-7.05,6.15-14.41,11.95-21.63,17.91a1,1,0,0,1-1.53,0c-1.86-1.49-3.76-2.94-5.64-4.41-6.63-5.19-13.37-10.27-19-16.58a35,35,0,0,1-8.1-13.86c-.43-1.54-.72-3.12-1.07-4.68v-2.7a4.25,4.25,0,0,0,.3-.86A16.86,16.86,0,0,1,421.28,170c1.32-.37,2.69-.59,4-.87h2.43a6.1,6.1,0,0,0,1,.32c6,.86,10.72,3.68,13.81,9a8.39,8.39,0,0,0,.51.71c.17-.07.27-.08.32-.14a1.54,1.54,0,0,0,.23-.33c2.82-5.12,7.25-8,12.88-9.1C457.19,169.43,457.88,169.26,458.56,169.11Z"/></g></svg>